<svg width="165" height="165" viewBox="0 0 165 165" fill="none" xmlns="http://www.w3.org/2000/svg">
<circle cx="82.5" cy="82.5" r="81.5" fill="#76CCBB" stroke="#429484" stroke-width="2"/>
<circle cx="82.5" cy="82.5" r="57.5" fill="#429484"/>
<path d="M117 81.7548C116.586 63.0144 101.268 48 82.5 48C63.456 48 48 63.456 48 82.5C48 96.2448 56.1696 108.692 68.7828 114.157C70.4664 111.646 71.736 108.858 72.5916 105.96C73.2816 104.194 74.0268 102.482 74.8272 100.799C75.8208 101.102 76.8696 101.268 77.946 101.268C80.844 101.268 83.604 100.109 85.6188 98.0664L85.7292 97.956C84.5424 97.5144 83.2728 97.2936 82.0032 97.2936C79.6572 97.2936 77.3664 98.0664 75.4896 99.5016C76.4556 97.5144 77.4768 95.5824 78.5532 93.7056C79.7124 94.1196 80.9268 94.3128 82.1412 94.3128C84.846 94.3128 87.4404 93.2916 89.4276 91.47L89.538 91.3596C88.2132 90.8076 86.778 90.504 85.3428 90.504C83.2176 90.504 81.1476 91.1388 79.3812 92.298C80.4576 90.5316 81.534 88.8204 82.6932 87.192C83.5764 87.4404 84.5148 87.5508 85.4256 87.5508C88.4616 87.5508 91.3596 86.2812 93.402 84.018L93.4848 83.9076C92.436 83.5488 91.3044 83.3832 90.2004 83.3832C87.9924 83.3832 85.8396 84.0732 84.0456 85.3428C84.1284 85.2324 84.2388 85.0944 84.3216 84.9564C85.0116 84.0732 85.7292 83.1624 86.4468 82.3068C90.918 80.844 94.23 77.0352 95.0304 72.3708L95.058 72.2052H95.0304C90.366 73.4196 86.8056 77.1732 85.8396 81.8928C85.1496 82.7208 84.4596 83.5764 83.7972 84.432C84.2664 83.2176 84.4872 81.948 84.4872 80.6508C84.4872 78.8016 84.018 77.0076 83.1072 75.4068L83.0244 75.5172C81.672 77.3664 80.9268 79.602 80.9268 81.8928C80.9268 83.5764 81.3132 85.26 82.086 86.778C80.982 88.3236 79.9332 89.9244 78.912 91.608C79.05 90.9456 79.1052 90.2556 79.1052 89.5932C79.1052 86.8332 78.0288 84.1836 76.1244 82.1964L76.0692 82.3344C75.5448 83.604 75.2964 84.984 75.2964 86.3364C75.2964 88.9308 76.2348 91.4148 77.9184 93.3744C76.8972 95.1408 75.9588 96.9624 75.0204 98.8392C75.1032 98.2596 75.1584 97.6524 75.1584 97.0728C75.1584 94.092 73.9716 91.2216 71.8464 89.1516L71.7912 89.2896C71.4048 90.4488 71.184 91.6908 71.184 92.9052C71.184 95.748 72.2604 98.4804 74.22 100.55C73.6128 101.848 73.0332 103.145 72.4812 104.497C72.3432 104.359 72.15 104.249 71.9568 104.194C70.9632 103.918 70.0248 103.476 69.1692 102.952C68.4516 102.51 67.6788 102.179 66.8784 101.903C63.7596 100.882 64.2288 99.3912 62.6004 96.3552C62.076 95.748 61.524 95.1408 60.9444 94.5612C60.3924 94.2024 59.9508 93.7332 59.6472 93.1536C59.2884 92.436 59.0676 91.6632 58.9848 90.8628C58.9572 89.952 58.3776 89.1792 57.522 88.9032C52.9404 87.33 54.9828 81.3684 55.1484 80.5956C55.0656 79.602 54.8448 78.6084 54.486 77.6424C54.4584 77.532 54.4308 77.394 54.4032 77.256C54.348 77.0076 54.3204 76.7316 54.3204 76.4556C54.3204 75.462 54.6792 74.496 55.3416 73.7508C55.8936 73.1988 57.798 72.3156 58.212 71.7912C58.626 71.2668 58.902 70.6872 59.316 70.218C60.5856 68.9484 62.076 67.872 63.7044 67.0716C65.0292 66.354 65.25 64.5048 65.7744 63.9252C66.63 62.9316 67.9548 62.9316 68.9484 62.076C69.4452 61.6344 70.1628 61.4136 70.632 60.9444C72.9228 58.8468 75.8484 57.4944 78.9396 57.108C79.4364 57.0804 79.9608 57.0528 80.4852 57.0528C82.1412 57.0528 83.7696 57.2736 85.3428 57.6876C85.6464 57.7428 85.95 57.798 86.226 57.8808C90.9732 58.0464 96.6864 59.04 98.784 61.0548C99.8052 62.0484 100.578 63.2628 100.992 64.6428C101.323 65.6916 101.792 66.7128 102.372 67.6512L103.642 69.7212C104.221 70.632 104.525 71.7084 104.525 72.7848C104.525 73.2264 104.47 73.668 104.387 74.1096C104.249 74.496 104.194 74.91 104.194 75.324C104.194 75.6828 104.249 76.014 104.332 76.3452C104.994 77.3664 105.794 78.2772 106.678 79.1052C107.036 79.464 107.423 79.7676 107.837 80.016C108.803 80.5956 109.769 81.2304 110.652 81.9204C110.652 81.9756 110.652 82.0308 110.652 82.086C110.652 82.6104 110.404 83.0796 109.99 83.3556C109.189 84.0732 107.616 85.2048 107.616 85.2048C107.671 85.536 107.782 85.8396 107.892 86.1156C108.113 86.5296 108.637 87.1644 108.472 87.6888C108.306 88.2408 107.174 88.71 107.478 89.3172C107.782 89.952 108.61 90.1176 108.361 90.6972C108.14 91.2492 107.009 92.2152 107.119 92.6292C107.23 93.0432 108.168 96.9072 106.015 97.5696C103.366 98.094 100.688 98.3976 97.9836 98.4528C97.1004 98.508 96.3 99.0048 95.886 99.7776C95.472 100.55 95.2236 101.378 95.1132 102.234C94.3404 105.298 93.2916 108.306 92.022 111.204C90.7524 114.102 91.9392 111.37 91.8288 111.646C91.5528 112.225 91.3596 112.832 91.3044 113.467C91.4976 113.936 91.7736 114.35 92.1048 114.709C92.3808 115.013 92.7672 115.206 93.2088 115.206C93.3468 115.206 93.5124 115.178 93.6504 115.151C107.616 110.293 116.972 97.1004 116.972 82.3068C116.972 82.1136 116.972 81.8928 116.972 81.6996L117 81.7548Z" fill="white"/>
</svg>
